<mxfile host="app.diagrams.net" agent="Mozilla/5.0 (X11; Linux x86_64) AppleWebKit/537.36 (KHTML, like Gecko) Chrome/136.0.0.0 Safari/537.36" version="27.0.5">
  <diagram name="Page-1" id="R4OSPZLMCHpRJc9Lvd82">
    <mxGraphModel dx="1126" dy="650" grid="1" gridSize="10" guides="1" tooltips="1" connect="1" arrows="1" fold="1" page="1" pageScale="1" pageWidth="827" pageHeight="1169" math="0" shadow="0">
      <root>
        <mxCell id="0" />
        <mxCell id="1" parent="0" />
        <mxCell id="ES-iI0E-9oSIP-vKgj_f-5" value="" style="edgeStyle=orthogonalEdgeStyle;rounded=0;orthogonalLoop=1;jettySize=auto;html=1;" parent="1" source="ES-iI0E-9oSIP-vKgj_f-2" target="ES-iI0E-9oSIP-vKgj_f-4" edge="1">
          <mxGeometry relative="1" as="geometry" />
        </mxCell>
        <mxCell id="ES-iI0E-9oSIP-vKgj_f-2" value="&lt;font style=&quot;font-size: 15px;&quot;&gt;Input Image&lt;/font&gt;" style="rounded=0;whiteSpace=wrap;html=1;" parent="1" vertex="1">
          <mxGeometry x="40" y="220" width="80" height="80" as="geometry" />
        </mxCell>
        <mxCell id="ES-iI0E-9oSIP-vKgj_f-4" value="&lt;font style=&quot;font-size: 15px;&quot;&gt;Conv Backbone&lt;/font&gt;" style="shape=ext;double=1;whiteSpace=wrap;html=1;aspect=fixed;" parent="1" vertex="1">
          <mxGeometry x="160" y="200" width="120" height="120" as="geometry" />
        </mxCell>
        <mxCell id="ES-iI0E-9oSIP-vKgj_f-12" style="edgeStyle=orthogonalEdgeStyle;rounded=0;orthogonalLoop=1;jettySize=auto;html=1;entryX=0;entryY=0.5;entryDx=0;entryDy=0;" parent="1" source="ES-iI0E-9oSIP-vKgj_f-8" target="ES-iI0E-9oSIP-vKgj_f-10" edge="1">
          <mxGeometry relative="1" as="geometry" />
        </mxCell>
        <mxCell id="ES-iI0E-9oSIP-vKgj_f-29" style="edgeStyle=orthogonalEdgeStyle;rounded=0;orthogonalLoop=1;jettySize=auto;html=1;" parent="1" source="ES-iI0E-9oSIP-vKgj_f-8" target="ES-iI0E-9oSIP-vKgj_f-19" edge="1">
          <mxGeometry relative="1" as="geometry">
            <Array as="points">
              <mxPoint x="460" y="260" />
              <mxPoint x="460" y="330" />
            </Array>
          </mxGeometry>
        </mxCell>
        <mxCell id="ES-iI0E-9oSIP-vKgj_f-8" value="&lt;font style=&quot;font-size: 15px;&quot;&gt;Feature map&lt;/font&gt;" style="whiteSpace=wrap;html=1;aspect=fixed;" parent="1" vertex="1">
          <mxGeometry x="340" y="230" width="60" height="60" as="geometry" />
        </mxCell>
        <mxCell id="ES-iI0E-9oSIP-vKgj_f-9" value="" style="endArrow=classic;html=1;rounded=0;exitX=1;exitY=0.5;exitDx=0;exitDy=0;entryX=0;entryY=0.5;entryDx=0;entryDy=0;" parent="1" source="ES-iI0E-9oSIP-vKgj_f-4" target="ES-iI0E-9oSIP-vKgj_f-8" edge="1">
          <mxGeometry width="50" height="50" relative="1" as="geometry">
            <mxPoint x="310" y="350" as="sourcePoint" />
            <mxPoint x="360" y="300" as="targetPoint" />
          </mxGeometry>
        </mxCell>
        <mxCell id="ES-iI0E-9oSIP-vKgj_f-16" value="" style="edgeStyle=orthogonalEdgeStyle;rounded=0;orthogonalLoop=1;jettySize=auto;html=1;" parent="1" source="ES-iI0E-9oSIP-vKgj_f-10" target="ES-iI0E-9oSIP-vKgj_f-15" edge="1">
          <mxGeometry relative="1" as="geometry" />
        </mxCell>
        <mxCell id="ES-iI0E-9oSIP-vKgj_f-10" value="&lt;font style=&quot;font-size: 15px;&quot;&gt;RPN&lt;/font&gt;" style="shape=ext;double=1;whiteSpace=wrap;html=1;aspect=fixed;" parent="1" vertex="1">
          <mxGeometry x="480" y="200" width="40" height="40" as="geometry" />
        </mxCell>
        <mxCell id="ES-iI0E-9oSIP-vKgj_f-28" style="edgeStyle=orthogonalEdgeStyle;rounded=0;orthogonalLoop=1;jettySize=auto;html=1;entryX=0.5;entryY=0;entryDx=0;entryDy=0;" parent="1" source="ES-iI0E-9oSIP-vKgj_f-15" target="ES-iI0E-9oSIP-vKgj_f-19" edge="1">
          <mxGeometry relative="1" as="geometry" />
        </mxCell>
        <mxCell id="CtphBOe0uy7uo8S2ePb6-50" value="" style="edgeStyle=orthogonalEdgeStyle;rounded=0;orthogonalLoop=1;jettySize=auto;html=1;" parent="1" source="ES-iI0E-9oSIP-vKgj_f-15" target="CtphBOe0uy7uo8S2ePb6-1" edge="1">
          <mxGeometry relative="1" as="geometry">
            <Array as="points">
              <mxPoint x="710" y="220" />
              <mxPoint x="710" y="220" />
            </Array>
          </mxGeometry>
        </mxCell>
        <mxCell id="ES-iI0E-9oSIP-vKgj_f-15" value="&lt;font style=&quot;font-size: 15px;&quot;&gt;Proposals&lt;/font&gt;" style="text;html=1;align=center;verticalAlign=middle;whiteSpace=wrap;rounded=0;" parent="1" vertex="1">
          <mxGeometry x="560" y="205" width="80" height="30" as="geometry" />
        </mxCell>
        <mxCell id="CtphBOe0uy7uo8S2ePb6-49" value="" style="edgeStyle=orthogonalEdgeStyle;rounded=0;orthogonalLoop=1;jettySize=auto;html=1;" parent="1" source="ES-iI0E-9oSIP-vKgj_f-19" target="CtphBOe0uy7uo8S2ePb6-1" edge="1">
          <mxGeometry relative="1" as="geometry">
            <Array as="points">
              <mxPoint x="680" y="330" />
              <mxPoint x="680" y="330" />
            </Array>
          </mxGeometry>
        </mxCell>
        <mxCell id="ES-iI0E-9oSIP-vKgj_f-19" value="" style="swimlane;startSize=0;" parent="1" vertex="1">
          <mxGeometry x="560" y="290" width="80" height="80" as="geometry">
            <mxRectangle x="520" y="330" width="50" height="40" as="alternateBounds" />
          </mxGeometry>
        </mxCell>
        <mxCell id="ES-iI0E-9oSIP-vKgj_f-20" value="" style="whiteSpace=wrap;html=1;" parent="ES-iI0E-9oSIP-vKgj_f-19" vertex="1">
          <mxGeometry x="10" y="20" width="20" height="10" as="geometry" />
        </mxCell>
        <mxCell id="ES-iI0E-9oSIP-vKgj_f-23" value="" style="whiteSpace=wrap;html=1;" parent="ES-iI0E-9oSIP-vKgj_f-19" vertex="1">
          <mxGeometry x="40" y="30" width="20" height="30" as="geometry" />
        </mxCell>
        <mxCell id="ES-iI0E-9oSIP-vKgj_f-31" value="&lt;font style=&quot;font-size: 15px;&quot;&gt;Proposals scaled to feature map&lt;/font&gt;" style="text;html=1;align=center;verticalAlign=middle;whiteSpace=wrap;rounded=0;" parent="1" vertex="1">
          <mxGeometry x="470" y="245" width="130" height="35" as="geometry" />
        </mxCell>
        <mxCell id="CtphBOe0uy7uo8S2ePb6-8" style="edgeStyle=orthogonalEdgeStyle;rounded=0;orthogonalLoop=1;jettySize=auto;html=1;entryX=0;entryY=0.5;entryDx=0;entryDy=0;" parent="1" source="CtphBOe0uy7uo8S2ePb6-1" target="CtphBOe0uy7uo8S2ePb6-6" edge="1">
          <mxGeometry relative="1" as="geometry" />
        </mxCell>
        <mxCell id="CtphBOe0uy7uo8S2ePb6-9" style="edgeStyle=orthogonalEdgeStyle;rounded=0;orthogonalLoop=1;jettySize=auto;html=1;" parent="1" source="CtphBOe0uy7uo8S2ePb6-1" target="CtphBOe0uy7uo8S2ePb6-7" edge="1">
          <mxGeometry relative="1" as="geometry" />
        </mxCell>
        <mxCell id="CtphBOe0uy7uo8S2ePb6-1" value="ROI Align" style="rounded=0;whiteSpace=wrap;html=1;" parent="1" vertex="1">
          <mxGeometry x="690" y="200" width="50" height="170" as="geometry" />
        </mxCell>
        <mxCell id="CtphBOe0uy7uo8S2ePb6-4" value="&lt;font style=&quot;font-size: 15px;&quot;&gt;The proposals scaling on feature map was shown just for illustration. ROI Align just takes the feature map and proposals. Note that functionality of ROI Align is same as ROI Pool.&lt;/font&gt;" style="text;html=1;align=center;verticalAlign=middle;whiteSpace=wrap;rounded=0;" parent="1" vertex="1">
          <mxGeometry x="430" y="380" width="250" height="120" as="geometry" />
        </mxCell>
        <mxCell id="CtphBOe0uy7uo8S2ePb6-39" value="" style="edgeStyle=orthogonalEdgeStyle;rounded=0;orthogonalLoop=1;jettySize=auto;html=1;" parent="1" source="CtphBOe0uy7uo8S2ePb6-6" target="CtphBOe0uy7uo8S2ePb6-24" edge="1">
          <mxGeometry relative="1" as="geometry" />
        </mxCell>
        <mxCell id="CtphBOe0uy7uo8S2ePb6-6" value="" style="whiteSpace=wrap;html=1;aspect=fixed;" parent="1" vertex="1">
          <mxGeometry x="840" y="200" width="40" height="40" as="geometry" />
        </mxCell>
        <mxCell id="CtphBOe0uy7uo8S2ePb6-40" value="" style="edgeStyle=orthogonalEdgeStyle;rounded=0;orthogonalLoop=1;jettySize=auto;html=1;" parent="1" source="CtphBOe0uy7uo8S2ePb6-7" target="CtphBOe0uy7uo8S2ePb6-38" edge="1">
          <mxGeometry relative="1" as="geometry" />
        </mxCell>
        <mxCell id="CtphBOe0uy7uo8S2ePb6-7" value="" style="whiteSpace=wrap;html=1;aspect=fixed;" parent="1" vertex="1">
          <mxGeometry x="840" y="320" width="40" height="40" as="geometry" />
        </mxCell>
        <mxCell id="CtphBOe0uy7uo8S2ePb6-10" value="&lt;font style=&quot;font-size: 15px;&quot;&gt;Output of ROI Align is (C, O, O)&lt;/font&gt;" style="text;html=1;strokeColor=none;fillColor=none;align=center;verticalAlign=middle;whiteSpace=wrap;rounded=0;" parent="1" vertex="1">
          <mxGeometry x="780" y="135" width="130" height="80" as="geometry" />
        </mxCell>
        <mxCell id="CtphBOe0uy7uo8S2ePb6-11" value="" style="edgeStyle=orthogonalEdgeStyle;rounded=0;orthogonalLoop=1;jettySize=auto;html=1;" parent="1" source="CtphBOe0uy7uo8S2ePb6-24" target="CtphBOe0uy7uo8S2ePb6-13" edge="1">
          <mxGeometry relative="1" as="geometry" />
        </mxCell>
        <mxCell id="CtphBOe0uy7uo8S2ePb6-12" value="" style="edgeStyle=orthogonalEdgeStyle;rounded=0;orthogonalLoop=1;jettySize=auto;html=1;" parent="1" source="CtphBOe0uy7uo8S2ePb6-13" target="CtphBOe0uy7uo8S2ePb6-16" edge="1">
          <mxGeometry relative="1" as="geometry" />
        </mxCell>
        <mxCell id="CtphBOe0uy7uo8S2ePb6-13" value="&lt;font style=&quot;font-size: 13px;&quot;&gt;FC&lt;/font&gt;" style="rounded=0;whiteSpace=wrap;html=1;" parent="1" vertex="1">
          <mxGeometry x="960" y="200" width="20" height="40" as="geometry" />
        </mxCell>
        <mxCell id="CtphBOe0uy7uo8S2ePb6-14" style="edgeStyle=orthogonalEdgeStyle;rounded=0;orthogonalLoop=1;jettySize=auto;html=1;entryX=0;entryY=0.5;entryDx=0;entryDy=0;" parent="1" source="CtphBOe0uy7uo8S2ePb6-16" target="CtphBOe0uy7uo8S2ePb6-18" edge="1">
          <mxGeometry relative="1" as="geometry" />
        </mxCell>
        <mxCell id="CtphBOe0uy7uo8S2ePb6-15" value="" style="edgeStyle=orthogonalEdgeStyle;rounded=0;orthogonalLoop=1;jettySize=auto;html=1;" parent="1" source="CtphBOe0uy7uo8S2ePb6-16" target="CtphBOe0uy7uo8S2ePb6-21" edge="1">
          <mxGeometry relative="1" as="geometry" />
        </mxCell>
        <mxCell id="CtphBOe0uy7uo8S2ePb6-16" value="&lt;font style=&quot;font-size: 15px;&quot;&gt;ROI vector&lt;/font&gt;" style="rounded=0;whiteSpace=wrap;html=1;" parent="1" vertex="1">
          <mxGeometry x="1000" y="200" width="50" height="40" as="geometry" />
        </mxCell>
        <mxCell id="CtphBOe0uy7uo8S2ePb6-17" value="" style="edgeStyle=orthogonalEdgeStyle;rounded=0;orthogonalLoop=1;jettySize=auto;html=1;" parent="1" source="CtphBOe0uy7uo8S2ePb6-18" target="CtphBOe0uy7uo8S2ePb6-19" edge="1">
          <mxGeometry relative="1" as="geometry" />
        </mxCell>
        <mxCell id="CtphBOe0uy7uo8S2ePb6-18" value="&lt;font style=&quot;font-size: 15px;&quot;&gt;classification head&lt;/font&gt;" style="whiteSpace=wrap;html=1;rounded=0;" parent="1" vertex="1">
          <mxGeometry x="1090" y="90" width="100" height="40" as="geometry" />
        </mxCell>
        <mxCell id="CtphBOe0uy7uo8S2ePb6-19" value="&lt;font style=&quot;font-size: 15px;&quot;&gt;Generates (N+1) class probabilities&lt;/font&gt;" style="text;html=1;strokeColor=none;fillColor=none;align=center;verticalAlign=middle;whiteSpace=wrap;rounded=0;" parent="1" vertex="1">
          <mxGeometry x="1220" y="95" width="170" height="30" as="geometry" />
        </mxCell>
        <mxCell id="CtphBOe0uy7uo8S2ePb6-20" value="" style="edgeStyle=orthogonalEdgeStyle;rounded=0;orthogonalLoop=1;jettySize=auto;html=1;" parent="1" source="CtphBOe0uy7uo8S2ePb6-21" target="CtphBOe0uy7uo8S2ePb6-22" edge="1">
          <mxGeometry relative="1" as="geometry" />
        </mxCell>
        <mxCell id="CtphBOe0uy7uo8S2ePb6-21" value="&lt;font style=&quot;font-size: 15px;&quot;&gt;regression head&lt;/font&gt;" style="whiteSpace=wrap;html=1;rounded=0;" parent="1" vertex="1">
          <mxGeometry x="1090" y="150" width="100" height="40" as="geometry" />
        </mxCell>
        <mxCell id="CtphBOe0uy7uo8S2ePb6-22" value="&lt;font style=&quot;font-size: 15px;&quot;&gt;Generates N*4 regression cooridnates&lt;/font&gt;" style="text;html=1;strokeColor=none;fillColor=none;align=center;verticalAlign=middle;whiteSpace=wrap;rounded=0;" parent="1" vertex="1">
          <mxGeometry x="1220" y="155" width="164" height="30" as="geometry" />
        </mxCell>
        <mxCell id="CtphBOe0uy7uo8S2ePb6-23" value="&lt;font style=&quot;font-size: 15px;&quot;&gt;Two MLP Head&lt;/font&gt;" style="text;html=1;strokeColor=none;fillColor=none;align=center;verticalAlign=middle;whiteSpace=wrap;rounded=0;" parent="1" vertex="1">
          <mxGeometry x="910" y="155" width="120" height="30" as="geometry" />
        </mxCell>
        <mxCell id="CtphBOe0uy7uo8S2ePb6-24" value="&lt;font style=&quot;font-size: 13px;&quot;&gt;FC&lt;/font&gt;" style="rounded=0;whiteSpace=wrap;html=1;" parent="1" vertex="1">
          <mxGeometry x="920" y="200" width="20" height="40" as="geometry" />
        </mxCell>
        <mxCell id="CtphBOe0uy7uo8S2ePb6-25" value="" style="edgeStyle=orthogonalEdgeStyle;rounded=0;orthogonalLoop=1;jettySize=auto;html=1;" parent="1" source="CtphBOe0uy7uo8S2ePb6-38" target="CtphBOe0uy7uo8S2ePb6-27" edge="1">
          <mxGeometry relative="1" as="geometry" />
        </mxCell>
        <mxCell id="CtphBOe0uy7uo8S2ePb6-26" value="" style="edgeStyle=orthogonalEdgeStyle;rounded=0;orthogonalLoop=1;jettySize=auto;html=1;" parent="1" source="CtphBOe0uy7uo8S2ePb6-27" target="CtphBOe0uy7uo8S2ePb6-30" edge="1">
          <mxGeometry relative="1" as="geometry" />
        </mxCell>
        <mxCell id="CtphBOe0uy7uo8S2ePb6-27" value="&lt;font style=&quot;font-size: 13px;&quot;&gt;FC&lt;/font&gt;" style="rounded=0;whiteSpace=wrap;html=1;" parent="1" vertex="1">
          <mxGeometry x="960" y="320" width="20" height="40" as="geometry" />
        </mxCell>
        <mxCell id="CtphBOe0uy7uo8S2ePb6-28" style="edgeStyle=orthogonalEdgeStyle;rounded=0;orthogonalLoop=1;jettySize=auto;html=1;entryX=0;entryY=0.5;entryDx=0;entryDy=0;" parent="1" source="CtphBOe0uy7uo8S2ePb6-30" target="CtphBOe0uy7uo8S2ePb6-32" edge="1">
          <mxGeometry relative="1" as="geometry" />
        </mxCell>
        <mxCell id="CtphBOe0uy7uo8S2ePb6-29" value="" style="edgeStyle=orthogonalEdgeStyle;rounded=0;orthogonalLoop=1;jettySize=auto;html=1;" parent="1" source="CtphBOe0uy7uo8S2ePb6-30" target="CtphBOe0uy7uo8S2ePb6-35" edge="1">
          <mxGeometry relative="1" as="geometry" />
        </mxCell>
        <mxCell id="CtphBOe0uy7uo8S2ePb6-30" value="&lt;font style=&quot;font-size: 15px;&quot;&gt;ROI vector&lt;/font&gt;" style="rounded=0;whiteSpace=wrap;html=1;" parent="1" vertex="1">
          <mxGeometry x="1000" y="320" width="50" height="40" as="geometry" />
        </mxCell>
        <mxCell id="CtphBOe0uy7uo8S2ePb6-31" value="" style="edgeStyle=orthogonalEdgeStyle;rounded=0;orthogonalLoop=1;jettySize=auto;html=1;" parent="1" source="CtphBOe0uy7uo8S2ePb6-32" target="CtphBOe0uy7uo8S2ePb6-33" edge="1">
          <mxGeometry relative="1" as="geometry" />
        </mxCell>
        <mxCell id="CtphBOe0uy7uo8S2ePb6-32" value="&lt;font style=&quot;font-size: 15px;&quot;&gt;classification head&lt;/font&gt;" style="whiteSpace=wrap;html=1;rounded=0;" parent="1" vertex="1">
          <mxGeometry x="1090" y="275" width="100" height="40" as="geometry" />
        </mxCell>
        <mxCell id="CtphBOe0uy7uo8S2ePb6-33" value="&lt;font style=&quot;font-size: 15px;&quot;&gt;Generates (N+1) class probabilities&lt;/font&gt;" style="text;html=1;strokeColor=none;fillColor=none;align=center;verticalAlign=middle;whiteSpace=wrap;rounded=0;" parent="1" vertex="1">
          <mxGeometry x="1220" y="280" width="170" height="30" as="geometry" />
        </mxCell>
        <mxCell id="CtphBOe0uy7uo8S2ePb6-34" value="" style="edgeStyle=orthogonalEdgeStyle;rounded=0;orthogonalLoop=1;jettySize=auto;html=1;" parent="1" source="CtphBOe0uy7uo8S2ePb6-35" target="CtphBOe0uy7uo8S2ePb6-36" edge="1">
          <mxGeometry relative="1" as="geometry" />
        </mxCell>
        <mxCell id="CtphBOe0uy7uo8S2ePb6-35" value="&lt;font style=&quot;font-size: 15px;&quot;&gt;regression head&lt;/font&gt;" style="whiteSpace=wrap;html=1;rounded=0;" parent="1" vertex="1">
          <mxGeometry x="1090" y="360" width="100" height="40" as="geometry" />
        </mxCell>
        <mxCell id="CtphBOe0uy7uo8S2ePb6-36" value="&lt;font style=&quot;font-size: 15px;&quot;&gt;Generates N*4 regression cooridnates&lt;/font&gt;" style="text;html=1;strokeColor=none;fillColor=none;align=center;verticalAlign=middle;whiteSpace=wrap;rounded=0;" parent="1" vertex="1">
          <mxGeometry x="1220" y="365" width="164" height="30" as="geometry" />
        </mxCell>
        <mxCell id="CtphBOe0uy7uo8S2ePb6-38" value="&lt;font style=&quot;font-size: 13px;&quot;&gt;FC&lt;/font&gt;" style="rounded=0;whiteSpace=wrap;html=1;" parent="1" vertex="1">
          <mxGeometry x="920" y="320" width="20" height="40" as="geometry" />
        </mxCell>
        <mxCell id="CtphBOe0uy7uo8S2ePb6-41" value="" style="endArrow=none;dashed=1;html=1;rounded=0;" parent="1" edge="1">
          <mxGeometry width="50" height="50" relative="1" as="geometry">
            <mxPoint x="680" y="40" as="sourcePoint" />
            <mxPoint x="680" y="430" as="targetPoint" />
          </mxGeometry>
        </mxCell>
        <mxCell id="CtphBOe0uy7uo8S2ePb6-42" value="" style="endArrow=none;dashed=1;html=1;rounded=0;" parent="1" edge="1">
          <mxGeometry width="50" height="50" relative="1" as="geometry">
            <mxPoint x="1400" y="40" as="sourcePoint" />
            <mxPoint x="680" y="40" as="targetPoint" />
          </mxGeometry>
        </mxCell>
        <mxCell id="CtphBOe0uy7uo8S2ePb6-43" value="" style="endArrow=none;dashed=1;html=1;rounded=0;" parent="1" edge="1">
          <mxGeometry width="50" height="50" relative="1" as="geometry">
            <mxPoint x="1400" y="430" as="sourcePoint" />
            <mxPoint x="680" y="429" as="targetPoint" />
          </mxGeometry>
        </mxCell>
        <mxCell id="CtphBOe0uy7uo8S2ePb6-44" value="" style="endArrow=none;dashed=1;html=1;rounded=0;" parent="1" edge="1">
          <mxGeometry width="50" height="50" relative="1" as="geometry">
            <mxPoint x="1400" y="40" as="sourcePoint" />
            <mxPoint x="1400" y="430" as="targetPoint" />
          </mxGeometry>
        </mxCell>
        <mxCell id="CtphBOe0uy7uo8S2ePb6-46" value="&lt;font style=&quot;font-size: 15px;&quot;&gt;If you observe, the ROI Align + FC layers + classification and regression head is same as Fast RCNN. That&#39;s the reason we refer this as fast-rcnn detection network. As mentined before, even though layers are shown seperated, they are shared among all proposals.&lt;/font&gt;" style="text;html=1;align=center;verticalAlign=middle;whiteSpace=wrap;rounded=0;" parent="1" vertex="1">
          <mxGeometry x="734" y="430" width="650" height="70" as="geometry" />
        </mxCell>
      </root>
    </mxGraphModel>
  </diagram>
</mxfile>
